<?xml version="1.0" standalone="no"?>
<!DOCTYPE svg PUBLIC "-//W3C//DTD SVG 20010904//EN"
 "http://www.w3.org/TR/2001/REC-SVG-20010904/DTD/svg10.dtd">
<svg version="1.0" xmlns="http://www.w3.org/2000/svg"
 width="260.000000pt" height="260.000000pt" viewBox="0 0 260.000000 260.000000"
 preserveAspectRatio="xMidYMid meet">
<metadata>
Created by potrace 1.14, written by Peter Selinger 2001-2017
</metadata>
<g transform="translate(0.000000,260.000000) scale(0.100000,-0.100000)"
fill="#000000" stroke="none">
<path d="M1875 1974 c-428 -92 -642 -587 -437 -1014 68 -142 229 -272 392
-316 111 -30 325 -27 405 6 11 4 36 14 55 21 87 32 226 144 286 231 l28 40
-22 18 c-22 18 -23 18 -90 -48 -167 -166 -440 -211 -613 -101 -41 26 -149 129
-149 143 0 3 -11 22 -25 42 -14 20 -39 80 -56 133 -40 122 -50 292 -25 411 50
240 203 375 416 369 180 -5 322 -107 417 -298 40 -79 52 -95 68 -92 27 5 36
20 30 56 -8 52 -15 103 -20 157 -4 29 -8 67 -10 83 -2 17 -7 56 -10 88 -7 51
-10 57 -30 57 -18 0 -26 -8 -35 -36 -7 -20 -17 -33 -24 -31 -129 53 -176 69
-243 80 -107 19 -223 19 -308 1z"/>
<path d="M3 1953 c-3 -6 -3 -22 -1 -35 2 -19 10 -23 40 -25 74 -4 74 -4 158
-243 155 -436 373 -1017 388 -1032 18 -18 53 3 69 40 33 79 146 349 159 377 7
17 52 125 100 240 47 116 92 224 99 240 8 17 26 59 41 95 40 99 94 202 118
228 29 33 72 53 109 54 18 0 39 2 47 4 17 4 21 46 7 60 -8 8 -431 14 -453 7
-11 -4 -11 -43 0 -61 3 -5 24 -10 47 -10 25 -1 49 -8 61 -19 35 -31 21 -79
-145 -523 -130 -346 -164 -428 -171 -410 -27 72 -205 614 -236 719 -46 154
-50 205 -20 221 12 6 51 12 88 13 l67 2 0 35 0 35 -284 0 c-208 0 -285 -3
-288 -12z"/>
</g>
</svg>
