<svg viewBox="0 0 106 39" xmlns="http://www.w3.org/2000/svg" xml:space="preserve" style="fill-rule:evenodd;clip-rule:evenodd;stroke-linecap:round;stroke-linejoin:round;stroke-miterlimit:1.5"><path d="m4200.83 3000.89 13.24 19.24h-26.48l13.24-19.24Z" style="fill:none;stroke:#d0b866;stroke-width:1.92px" transform="matrix(0 .44848 -.49373 0 1586.64 -1863.186)"/><path style="fill:#d0b866" d="M4203.49 2999.32h2.933v178.379h-2.933z" transform="matrix(0 .30934 -.45265 0 1462.135 -1279.965)"/><path d="M4196.49 3127.19v103.59h2v-103.59h1.45v-4.9h-4.9v4.9h1.45Z" style="fill:#d0b866" transform="matrix(0 .45365 -.45365 0 1465.65 -1886.118)"/><circle cx="4202.33" cy="3051.07" r="9.074" style="fill:none;stroke:#d0b866;stroke-width:2px" transform="matrix(0 .45365 -.45365 0 1465.378 -1885.592)"/><path d="m4192.85 3075.68 1.13 4.27c-18.3 4.3-31.94 20.75-31.94 40.35 0 22.88 18.57 41.46 41.45 41.46 14.74 0 27.69-7.71 35.04-19.3l4.09 1.76c-8.06 13.16-22.58 21.95-39.13 21.95-25.31 0-45.86-20.55-45.86-45.87 0-21.65 15.03-39.81 35.22-44.62Z" style="fill:#d0b866;fill-opacity:.5" transform="matrix(0 .45365 -.45365 0 1465.65 -1886.118)"/></svg>