<svg viewBox="0 0 92 34" xmlns="http://www.w3.org/2000/svg" xml:space="preserve" style="fill-rule:evenodd;clip-rule:evenodd;stroke-linecap:round;stroke-linejoin:round;stroke-miterlimit:1.5"><path d="m4200.83 3000.89 13.24 19.24h-26.48l13.24-19.24Z" style="fill:none;stroke:#fff;stroke-width:1.92px" transform="matrix(0 .39084 -.43027 0 1382.714 -1623.712)"/><path style="fill:#fff" d="M4203.49 2999.32h2.933v178.379h-2.933z" transform="matrix(0 .26958 -.39447 0 1274.212 -1115.452)"/><path d="M4196.49 3127.19v103.59h2v-103.59h1.45v-4.9h-4.9v4.9h1.45Z" style="fill:#fff" transform="matrix(0 .39535 -.39535 0 1277.275 -1643.697)"/><circle cx="4202.33" cy="3051.07" r="9.074" style="fill:none;stroke:#fff;stroke-width:2px" transform="matrix(0 .39535 -.39535 0 1277.038 -1643.239)"/><path d="m4192.85 3075.68 1.13 4.27c-18.3 4.3-31.94 20.75-31.94 40.35 0 22.88 18.57 41.46 41.45 41.46 14.74 0 27.69-7.71 35.04-19.3l4.09 1.76c-8.06 13.16-22.58 21.95-39.13 21.95-25.31 0-45.86-20.55-45.86-45.87 0-21.65 15.03-39.81 35.22-44.62Z" style="fill:#fff;fill-opacity:.5" transform="matrix(0 .39535 -.39535 0 1277.275 -1643.697)"/></svg>