<?xml version="1.0" encoding="iso-8859-1"?>
<!-- Generator: Adobe Illustrator 22.1.0, SVG Export Plug-In . SVG Version: 6.00 Build 0)  -->
<svg version="1.1" id="Warstwa_1" xmlns="http://www.w3.org/2000/svg" xmlns:xlink="http://www.w3.org/1999/xlink" x="0px" y="0px"
	 viewBox="0 0 731.1 224.9" style="enable-background:new 0 0 731.1 224.9;" xml:space="preserve">
<title>2017_Nowe LOGO Nphoto i najlepszefoto 2</title>
<path style="fill:#FFFFFF;" d="M462.1,53c-33.966,0-61.5,27.534-61.5,61.5s27.534,61.5,61.5,61.5s61.5-27.534,61.5-61.5l0,0
	C523.556,80.553,496.047,53.044,462.1,53z M462.1,161c-25.681,0-46.5-20.819-46.5-46.5S436.419,68,462.1,68s46.5,20.819,46.5,46.5
	C508.545,140.158,487.758,160.945,462.1,161z"/>
<path style="fill:#FFFFFF;" d="M599.8,161c-25.658-0.055-46.445-20.842-46.5-46.5V69h84.2v-0.1c4.076-0.797,6.734-4.748,5.937-8.824
	c-0.687-3.514-3.756-6.055-7.337-6.076h-82.8V7.5c0-4.142-3.358-7.5-7.5-7.5c-4.142,0-7.5,3.358-7.5,7.5V54h-10.2
	c-4.142,0-7.5,3.358-7.5,7.5s3.358,7.5,7.5,7.5l0,0h10.2v46.5l0.1,1.4l0,0c1.303,32.979,28.395,59.056,61.4,59.1h0.2
	c4.142-0.055,7.455-3.458,7.4-7.6S603.942,160.945,599.8,161z"/>
<path style="fill:#FFFFFF;" d="M669.6,53L669.6,53c-4.142,0-7.5,3.358-7.5,7.5s3.358,7.5,7.5,7.5l0,0
	c25.681,0,46.5,20.819,46.5,46.5S695.281,161,669.6,161c-25.681,0-46.5-20.819-46.5-46.5c-0.027-4.131-3.369-7.473-7.5-7.5
	c-4.11-0.017-7.461,3.29-7.5,7.4v0.4c0.166,33.965,27.834,61.365,61.799,61.199s61.365-27.834,61.199-61.799
	C730.933,80.352,703.448,53,669.6,53z"/>
<path style="fill:#FFFFFF;" d="M328.2,53c-17.895-0.064-34.909,7.766-46.5,21.4V7.5c0-4.142-3.358-7.5-7.5-7.5s-7.5,3.358-7.5,7.5
	v108c0,4.142,3.358,7.5,7.5,7.5s7.5-3.358,7.5-7.5v-1c0-25.681,20.819-46.5,46.5-46.5s46.5,20.819,46.5,46.5v54
	c0,4.142,3.358,7.5,7.5,7.5s7.5-3.358,7.5-7.5v-54C389.656,80.553,362.147,53.044,328.2,53z"/>
<path style="fill:#FFFFFF;" d="M195.3,53c-33.947,0.044-61.456,27.553-61.5,61.5v102.9c0,4.142,3.358,7.5,7.5,7.5
	c4.142,0,7.5-3.358,7.5-7.5V114.5c0-25.681,20.819-46.5,46.5-46.5c25.681,0,46.5,20.819,46.5,46.5S220.981,161,195.3,161
	c-4.142,0-7.5,3.358-7.5,7.5s3.358,7.5,7.5,7.5c33.966,0,61.5-27.534,61.5-61.5S229.266,53,195.3,53z"/>
<path style="fill:#8DD4BD;" d="M61.5,53C43.605,52.936,26.591,60.766,15,74.4V60.5c0-4.142-3.358-7.5-7.5-7.5
	C3.358,53,0,56.358,0,60.5V166c0,4.142,3.358,7.5,7.5,7.5s7.5-3.358,7.5-7.5v-51.5C15,88.819,35.819,68,61.5,68
	S108,88.819,108,114.5v54c0,4.142,3.358,7.5,7.5,7.5s7.5-3.358,7.5-7.5v-54c0.022-33.943-27.477-61.478-61.42-61.5
	C61.553,53,61.527,53,61.5,53z"/>
</svg>
